<svg width="40" height="36" viewBox="0 0 40 36" fill="none" xmlns="http://www.w3.org/2000/svg">
<path d="M30.2091 34.1223C37.0894 29.9648 32.43 16.2187 20.7137 15.8867C8.99738 15.5546 4.01625 30.8336 9.28293 34.5362C13.8652 37.7567 17.686 32.4075 20.2015 32.6258C22.717 32.8441 23.2791 38.3116 30.2046 34.1223H30.2091Z" fill="#DE4913"/>
<path d="M25.9214 0.00278595C20.7318 -0.21555 17.6271 12.4707 24.8609 12.9665C32.0946 13.4623 31.1111 0.221122 25.9214 0.00278595Z" fill="#DE4913"/>
<path d="M35.4258 6.36633C30.6895 6.36633 28.5819 19.4028 35.6253 19.371C42.6687 19.3391 40.1622 6.36179 35.4258 6.36633Z" fill="#DE4913"/>
<path d="M4.31993 7.97205C-0.271414 7.72187 -2.66907 21.0495 4.74145 20.9721C12.152 20.8948 8.91581 8.22222 4.31993 7.97205Z" fill="#DE4913"/>
<path d="M12.8453 0.830672C8.22679 1.52207 7.46987 14.7814 15.1161 13.6352C22.7577 12.4935 17.4639 0.134725 12.8453 0.830672Z" fill="#DE4913"/>
</svg>
