<svg width="81" height="64" viewBox="0 0 81 64" fill="none" xmlns="http://www.w3.org/2000/svg">
<g filter="url(#filter0_i_222_132)">
<path d="M14.175 0C10.8211 0 8.1 2.6875 8.1 6V12H2.025C0.91125 12 0 12.9 0 14C0 15.1 0.91125 16 2.025 16H8.1H34.425C35.5387 16 36.45 16.9 36.45 18C36.45 19.1 35.5387 20 34.425 20H8.1H6.075C4.96125 20 4.05 20.9 4.05 22C4.05 23.1 4.96125 24 6.075 24H8.1H30.375C31.4888 24 32.4 24.9 32.4 26C32.4 27.1 31.4888 28 30.375 28H8.1H2.025C0.91125 28 0 28.9 0 30C0 31.1 0.91125 32 2.025 32H8.1H26.325C27.4387 32 28.35 32.9 28.35 34C28.35 35.1 27.4387 36 26.325 36H8.1V52C8.1 58.625 13.5422 64 20.25 64C26.9578 64 32.4 58.625 32.4 52H48.6C48.6 58.625 54.0422 64 60.75 64C67.4578 64 72.9 58.625 72.9 52H76.95C79.1902 52 81 50.2125 81 48C81 45.7875 79.1902 44 76.95 44V36V32V29.6625C76.95 27.5375 76.102 25.5 74.5833 24L64.8 14.3375C63.2813 12.8375 61.2183 12 59.0667 12H52.65V6C52.65 2.6875 49.9289 0 46.575 0H14.175ZM68.85 29.6625V32H52.65V20H59.0667L68.85 29.6625ZM20.25 46C21.8612 46 23.4064 46.6321 24.5457 47.7574C25.685 48.8826 26.325 50.4087 26.325 52C26.325 53.5913 25.685 55.1174 24.5457 56.2426C23.4064 57.3679 21.8612 58 20.25 58C18.6388 58 17.0936 57.3679 15.9543 56.2426C14.815 55.1174 14.175 53.5913 14.175 52C14.175 50.4087 14.815 48.8826 15.9543 47.7574C17.0936 46.6321 18.6388 46 20.25 46ZM54.675 52C54.675 50.4087 55.315 48.8826 56.4543 47.7574C57.5936 46.6321 59.1388 46 60.75 46C62.3612 46 63.9064 46.6321 65.0457 47.7574C66.185 48.8826 66.825 50.4087 66.825 52C66.825 53.5913 66.185 55.1174 65.0457 56.2426C63.9064 57.3679 62.3612 58 60.75 58C59.1388 58 57.5936 57.3679 56.4543 56.2426C55.315 55.1174 54.675 53.5913 54.675 52Z" fill="white"/>
</g>
<defs>
<filter id="filter0_i_222_132" x="0" y="0" width="81" height="67" filterUnits="userSpaceOnUse" color-interpolation-filters="sRGB">
<feFlood flood-opacity="0" result="BackgroundImageFix"/>
<feBlend mode="normal" in="SourceGraphic" in2="BackgroundImageFix" result="shape"/>
<feColorMatrix in="SourceAlpha" type="matrix" values="0 0 0 0 0 0 0 0 0 0 0 0 0 0 0 0 0 0 127 0" result="hardAlpha"/>
<feOffset dy="3"/>
<feGaussianBlur stdDeviation="2"/>
<feComposite in2="hardAlpha" operator="arithmetic" k2="-1" k3="1"/>
<feColorMatrix type="matrix" values="0 0 0 0 0 0 0 0 0 0 0 0 0 0 0 0 0 0 0.25 0"/>
<feBlend mode="normal" in2="shape" result="effect1_innerShadow_222_132"/>
</filter>
</defs>
</svg>
