<?xml version="1.0" standalone="no"?>
<!DOCTYPE svg PUBLIC "-//W3C//DTD SVG 20010904//EN"
 "http://www.w3.org/TR/2001/REC-SVG-20010904/DTD/svg10.dtd">
<svg version="1.0" xmlns="http://www.w3.org/2000/svg"
 width="32.000000pt" height="32.000000pt" viewBox="0 0 32.000000 32.000000"
 preserveAspectRatio="xMidYMid meet">

<g transform="translate(0.000000,32.000000) scale(0.100000,-0.100000)"
fill="#000000" stroke="none">
<path d="M147 314 c-4 -4 -7 -41 -7 -82 0 -72 -1 -74 -18 -59 -20 19 -52 23
-52 7 0 -16 60 -79 82 -86 15 -4 30 4 59 32 21 21 39 44 39 51 0 19 -35 16
-51 -4 -12 -14 -15 -6 -19 62 -5 72 -15 97 -33 79z"/>
<path d="M4 116 c-3 -7 -4 -35 -2 -62 l3 -49 155 0 155 0 0 60 c0 49 -3 60
-17 63 -15 3 -18 -4 -18 -42 l0 -46 -120 0 -120 0 0 45 c0 34 -4 45 -15 45 -9
0 -18 -6 -21 -14z"/>
</g>
</svg>
