<svg width="18" height="20" viewBox="0 0 18 20" fill="none" xmlns="http://www.w3.org/2000/svg">
<g filter="url(#filter0_i_391_3)">
<path d="M0 7.55871C0.173735 7.20446 0.485748 7.20528 0.775779 7.15585C2.05362 6.93836 3.33145 6.72334 4.60929 6.50832C4.96172 6.449 5.31487 6.38968 5.66801 6.33531C5.92613 6.29577 6.10766 6.1483 6.22396 5.87232C6.9813 4.0813 7.74361 2.29275 8.5045 0.504206C8.53002 0.443243 8.55342 0.380631 8.5825 0.322139C8.79311 -0.103784 9.19093 -0.107903 9.40508 0.313077C9.43486 0.371569 9.45897 0.433356 9.48521 0.49432C10.2121 2.2046 10.951 3.90829 11.6572 5.63093C11.848 6.0964 12.1047 6.31389 12.5415 6.38062C14.1917 6.63519 15.8382 6.92353 17.4862 7.20034C17.521 7.2061 17.5543 7.21846 17.5891 7.22752C18.0131 7.33957 18.1358 7.78197 17.8302 8.14363C17.4529 8.59015 17.0622 9.02184 16.6764 9.45847C15.7879 10.466 14.8994 11.4736 14.0087 12.4778C13.8321 12.6764 13.7754 12.9136 13.8158 13.1839C14.0782 14.9625 14.3441 16.7412 14.6079 18.5198C14.6405 18.7406 14.6646 18.9631 14.7029 19.1822C14.7462 19.4302 14.7412 19.6641 14.554 19.8314C14.359 20.0044 14.1604 19.9352 13.9626 19.8141C12.7167 19.0504 11.4693 18.29 10.2227 17.5288C9.9277 17.3483 9.63058 17.1737 9.33771 16.9883C9.10654 16.8417 8.88742 16.8474 8.65483 16.99C7.13589 17.9217 5.61412 18.8485 4.09376 19.7762C4.04696 19.8042 4.00016 19.8322 3.95264 19.8586C3.77749 19.9541 3.60163 19.9764 3.43924 19.8322C3.27685 19.688 3.24778 19.4812 3.27756 19.2621C3.32507 18.9202 3.38038 18.5808 3.43073 18.2397C3.64701 16.7749 3.86259 15.311 4.07887 13.8462C4.10865 13.6452 4.13489 13.4442 4.16893 13.2448C4.22211 12.9351 4.16254 12.6764 3.96044 12.449C2.74997 11.0847 1.54305 9.71551 0.338251 8.34464C0.214864 8.20294 0.112041 8.039 0 7.88494C0 7.7762 0 7.66745 0 7.55871Z" fill="#872012"/>
</g>
<defs>
<filter id="filter0_i_391_3" x="0" y="0" width="18" height="23.9353" filterUnits="userSpaceOnUse" color-interpolation-filters="sRGB">
<feFlood flood-opacity="0" result="BackgroundImageFix"/>
<feBlend mode="normal" in="SourceGraphic" in2="BackgroundImageFix" result="shape"/>
<feColorMatrix in="SourceAlpha" type="matrix" values="0 0 0 0 0 0 0 0 0 0 0 0 0 0 0 0 0 0 127 0" result="hardAlpha"/>
<feOffset dy="4"/>
<feGaussianBlur stdDeviation="2"/>
<feComposite in2="hardAlpha" operator="arithmetic" k2="-1" k3="1"/>
<feColorMatrix type="matrix" values="0 0 0 0 0 0 0 0 0 0 0 0 0 0 0 0 0 0 0.25 0"/>
<feBlend mode="normal" in2="shape" result="effect1_innerShadow_391_3"/>
</filter>
</defs>
</svg>
