<svg width="40" height="35" viewBox="0 0 40 35" fill="none" xmlns="http://www.w3.org/2000/svg">
<path d="M31.2128 25.6728C29.5042 24.0413 28.1465 22.1174 27.1396 19.9011C26.1327 17.6847 25.6293 15.3298 25.6293 12.8364C25.6293 10.343 26.1327 7.98813 27.1396 5.77177C28.1465 3.55541 29.5042 1.63149 31.2128 0L34.0503 2.95515C32.7079 4.21724 31.6552 5.69481 30.8925 7.38786C30.1297 9.08091 29.7483 10.8971 29.7483 12.8364C29.7483 14.7757 30.1297 16.6073 30.8925 18.3311C31.6552 20.055 32.7079 21.5479 34.0503 22.81L31.2128 25.6728ZM37.0709 19.7625C36.0946 18.8698 35.3318 17.8309 34.7826 16.6458C34.2334 15.4606 33.9588 14.1909 33.9588 12.8364C33.9588 11.482 34.2334 10.2122 34.7826 9.02705C35.3318 7.84191 36.0946 6.80299 37.0709 5.91029L40 8.86544C39.4508 9.38874 39.0084 9.98131 38.6728 10.6431C38.3371 11.305 38.1693 12.0361 38.1693 12.8364C38.1693 13.6368 38.3371 14.3679 38.6728 15.0297C39.0084 15.6915 39.4508 16.2841 40 16.8074L37.0709 19.7625ZM14.6453 20.2243C12.6316 20.2243 10.9077 19.5009 9.47368 18.0541C8.03966 16.6073 7.32265 14.8681 7.32265 12.8364C7.32265 10.8047 8.03966 9.06552 9.47368 7.61873C10.9077 6.17194 12.6316 5.44855 14.6453 5.44855C16.659 5.44855 18.3829 6.17194 19.8169 7.61873C21.251 9.06552 21.968 10.8047 21.968 12.8364C21.968 14.8681 21.251 16.6073 19.8169 18.0541C18.3829 19.5009 16.659 20.2243 14.6453 20.2243ZM0 35V29.8285C0 28.8127 0.259344 27.8584 0.778032 26.9657C1.29672 26.073 2.01373 25.3958 2.92906 24.934C4.48513 24.1337 6.23951 23.4565 8.19222 22.9024C10.1449 22.3483 12.296 22.0712 14.6453 22.0712C16.9947 22.0712 19.1457 22.3483 21.0984 22.9024C23.0511 23.4565 24.8055 24.1337 26.3616 24.934C27.2769 25.3958 27.9939 26.073 28.5126 26.9657C29.0313 27.8584 29.2906 28.8127 29.2906 29.8285V35H0ZM3.66133 31.3061H25.6293V29.8285C25.6293 29.4899 25.5454 29.1821 25.3776 28.905C25.2098 28.628 24.9886 28.4125 24.714 28.2586C23.6156 27.7045 22.2044 27.1504 20.4806 26.5963C18.7567 26.0422 16.8116 25.7652 14.6453 25.7652C12.479 25.7652 10.5339 26.0422 8.81007 26.5963C7.08619 27.1504 5.67506 27.7045 4.57666 28.2586C4.30206 28.4125 4.08085 28.628 3.91304 28.905C3.74523 29.1821 3.66133 29.4899 3.66133 29.8285V31.3061ZM14.6453 16.5303C15.6522 16.5303 16.5141 16.1686 17.2311 15.4453C17.9481 14.7219 18.3066 13.8522 18.3066 12.8364C18.3066 11.8206 17.9481 10.951 17.2311 10.2276C16.5141 9.50418 15.6522 9.14248 14.6453 9.14248C13.6384 9.14248 12.7765 9.50418 12.0595 10.2276C11.3425 10.951 10.984 11.8206 10.984 12.8364C10.984 13.8522 11.3425 14.7219 12.0595 15.4453C12.7765 16.1686 13.6384 16.5303 14.6453 16.5303Z" fill="white"/>
</svg>
