<svg width="35" height="35" viewBox="0 0 35 35" fill="none" xmlns="http://www.w3.org/2000/svg">
<path d="M3.89375 28.5526C2.66875 27.0322 1.71354 25.3289 1.02812 23.443C0.342708 21.557 0 19.5614 0 17.4561C0 12.8655 1.50937 8.91813 4.52812 5.61404C7.54688 2.30994 11.2875 0.438596 15.75 0V3.50877C12.25 3.91813 9.33333 5.4386 7 8.07018C4.66667 10.7018 3.5 13.8304 3.5 17.4561C3.5 19.0936 3.74792 20.636 4.24375 22.0833C4.73958 23.5307 5.45417 24.8538 6.3875 26.0526L3.89375 28.5526ZM17.5 35C15.3708 35 13.3583 34.6491 11.4625 33.9474C9.56667 33.2456 7.86042 32.2661 6.34375 31.0088L8.79375 28.5088C9.98958 29.4444 11.324 30.1754 12.7969 30.7018C14.2698 31.2281 15.8375 31.4912 17.5 31.4912C19.1625 31.4912 20.7302 31.2281 22.2031 30.7018C23.676 30.1754 25.0104 29.4444 26.2062 28.5088L28.6562 31.0088C27.1396 32.2661 25.4333 33.2456 23.5375 33.9474C21.6417 34.6491 19.6292 35 17.5 35ZM31.1062 28.5526L28.6125 26.0526C29.5458 24.8538 30.2604 23.5307 30.7563 22.0833C31.2521 20.636 31.5 19.0936 31.5 17.4561C31.5 13.8304 30.3333 10.7018 28 8.07018C25.6667 5.4386 22.75 3.91813 19.25 3.50877V0C23.7125 0.438596 27.4531 2.30994 30.4719 5.61404C33.4906 8.91813 35 12.8655 35 17.4561C35 19.5614 34.6573 21.557 33.9719 23.443C33.2865 25.3289 32.3312 27.0322 31.1062 28.5526ZM13.125 25.3509V9.5614L25.375 17.4561L13.125 25.3509Z" fill="white"/>
</svg>
