<?xml version="1.0" encoding="UTF-8"?>
<svg id="Capa_1" data-name="Capa 1" xmlns="http://www.w3.org/2000/svg" viewBox="0 0 25.89 25.4">
  <defs>
    <style>
      .cls-1 {
        fill: #de4913;
        fill-rule: evenodd;
        stroke-width: 0px;
      }
    </style>
  </defs>
  <path class="cls-1" d="m10.53,0c6.1-.17,11.09,5.04,11.09,11.36,0,5.16-3.32,9.77-8.12,11.12l-.54.15c-1.33.37-2.71.46-4.08.27C3.98,22.19.26,17.93.05,12.77l-.04-1.03C-.25,5.45,4.49.17,10.53,0Zm8.5,11.36c0-4.84-3.83-8.79-8.44-8.66-4.59.13-8.19,4.14-8,8.92l.04,1.04c.16,3.85,2.93,7.04,6.6,7.57,1.02.15,2.05.08,3.05-.2l.54-.15c3.65-1.03,6.2-4.55,6.2-8.51Z"/>
  <path class="cls-1" d="m25.52,24.99c-.5.53-1.33.54-1.85.03l-6.46-6.35,1.82-1.91,6.46,6.35c.52.51.53,1.35.03,1.88Z"/>
</svg>