<svg width="44" height="35" viewBox="0 0 44 35" fill="none" xmlns="http://www.w3.org/2000/svg">
<path d="M4.4 35C3.19 35 2.15417 34.5716 1.2925 33.7148C0.430833 32.8581 0 31.8281 0 30.625V4.375C0 3.17188 0.430833 2.14193 1.2925 1.28516C2.15417 0.428385 3.19 0 4.4 0H15.4V4.375H4.4V30.625H39.6V4.375H28.6V0H39.6C40.81 0 41.8458 0.428385 42.7075 1.28516C43.5692 2.14193 44 3.17188 44 4.375V30.625C44 31.8281 43.5692 32.8581 42.7075 33.7148C41.8458 34.5716 40.81 35 39.6 35H4.4ZM22 24.9375L11 14L14.08 10.9375L19.8 16.625V0H24.2V16.625L29.92 10.9375L33 14L22 24.9375Z" fill="white"/>
</svg>
