<?xml version="1.0" encoding="UTF-8"?>
<svg id="Capa_1" data-name="Capa 1" xmlns="http://www.w3.org/2000/svg" viewBox="0 0 26 26">
  <defs>
    <style>
      .cls-1 {
        fill-rule: evenodd;
      }

      .cls-1, .cls-2 {
        fill: #de4913;
        stroke-width: 0px;
      }
    </style>
  </defs>
  <path class="cls-1" d="m4.49,2.19H0V0h4.92c.74,0,1.36.57,1.49,1.36l.46,2.87h17.62c1.03,0,1.76,1.09,1.44,2.15l-2.72,9.06c-.2.67-.78,1.13-1.44,1.13h-12.91l.37,2.05h16.48v2.19H8.81c-.72,0-1.34-.56-1.48-1.32l-.69-3.8L4.49,2.19Zm3.99,12.2l-.46-2.89h14.25l-.87,2.89h-12.92Zm14.44-5.08l.87-2.89H7.21l.46,2.89h15.25Z"/>
  <path class="cls-2" d="m12.07,23.92c0,1.15-.62,2.08-1.39,2.08s-1.39-.93-1.39-2.08.62-2.08,1.39-2.08,1.39.93,1.39,2.08Z"/>
  <path class="cls-2" d="m21.36,23.92c0,1.15-.62,2.08-1.39,2.08s-1.39-.93-1.39-2.08.62-2.08,1.39-2.08,1.39.93,1.39,2.08Z"/>
</svg>