<svg width="45" height="33" viewBox="0 0 45 33" fill="none" xmlns="http://www.w3.org/2000/svg">
<path d="M22.5 33C21.1875 33 20.0781 32.5309 19.1719 31.5926C18.2656 30.6544 17.8125 29.5059 17.8125 28.1471C17.8125 26.7882 18.2656 25.6397 19.1719 24.7015C20.0781 23.7632 21.1875 23.2941 22.5 23.2941C23.8125 23.2941 24.9219 23.7632 25.8281 24.7015C26.7344 25.6397 27.1875 26.7882 27.1875 28.1471C27.1875 29.5059 26.7344 30.6544 25.8281 31.5926C24.9219 32.5309 23.8125 33 22.5 33ZM11.9062 22.0324L7.96875 17.8588C9.8125 15.95 11.9766 14.4375 14.4609 13.3213C16.9453 12.2051 19.625 11.6471 22.5 11.6471C25.375 11.6471 28.0547 12.2132 30.5391 13.3456C33.0234 14.4779 35.1875 16.0147 37.0312 17.9559L33.0938 22.0324C31.7188 20.6088 30.125 19.4926 28.3125 18.6838C26.5 17.875 24.5625 17.4706 22.5 17.4706C20.4375 17.4706 18.5 17.875 16.6875 18.6838C14.875 19.4926 13.2812 20.6088 11.9062 22.0324ZM3.9375 13.7824L0 9.70588C2.875 6.66471 6.23438 4.28676 10.0781 2.57206C13.9219 0.857353 18.0625 0 22.5 0C26.9375 0 31.0781 0.857353 34.9219 2.57206C38.7656 4.28676 42.125 6.66471 45 9.70588L41.0625 13.7824C38.6562 11.2912 35.8672 9.34191 32.6953 7.93456C29.5234 6.52721 26.125 5.82353 22.5 5.82353C18.875 5.82353 15.4766 6.52721 12.3047 7.93456C9.13281 9.34191 6.34375 11.2912 3.9375 13.7824Z" fill="white"/>
</svg>
