<svg width="209" height="205" viewBox="0 0 209 205" fill="none" xmlns="http://www.w3.org/2000/svg">
<mask id="path-1-inside-1_1180_5761" fill="white">
<path d="M0 102.5C0 45.8908 45.8908 0 102.5 0H106.397C163.007 0 208.897 45.8908 208.897 102.5V102.5C208.897 159.109 163.007 205 106.397 205H102.5C45.8908 205 0 159.109 0 102.5V102.5Z"/>
</mask>
<path d="M0 102.5C0 45.8908 45.8908 0 102.5 0H106.397C163.007 0 208.897 45.8908 208.897 102.5V102.5C208.897 159.109 163.007 205 106.397 205H102.5C45.8908 205 0 159.109 0 102.5V102.5Z" fill="#FFCB00"/>
<path d="M0 0H208.897H0ZM208.897 205H0H208.897ZM98.5 205C41.8908 205 -4 159.109 -4 102.5C-4 45.8908 41.8908 0 98.5 0H102.5C48.1 0 4 45.8908 4 102.5C4 159.109 48.1 205 102.5 205H98.5ZM208.897 0V205V0Z" fill="#745C00" mask="url(#path-1-inside-1_1180_5761)"/>
</svg>
