<svg width="145" height="34" viewBox="0 0 145 34" fill="none" xmlns="http://www.w3.org/2000/svg">
<g clip-path="url(#clip0_427_114)">
<path d="M0 9.99045V31.0364C0 31.0364 6.80955 24.9704 15.6185 30.6197L15.4852 8.0514C13.1787 6.29757 5.98661 1.92168 0 9.99045Z" fill="#DE4913"/>
<path d="M20.4288 28.8891L20.2491 13.9844L21.1706 14.4706C22.8454 15.3562 25.4591 14.7427 26.34 14.1986C27.2209 13.6603 27.6846 12.9194 27.6846 12.9194L26.8732 11.7386C26.8732 11.7386 30.1592 7.65789 25.8996 3.71033L27.0181 0.0116557C27.0181 0.0116557 24.0856 -0.45719 21.5762 3.20675C18.6264 4.35282 17.3109 5.89827 16.7197 7.05592L16.8588 30.6198C18.0932 29.8326 19.2871 29.2711 20.4288 28.8891Z" fill="#DE4913"/>
<path d="M36.5748 9.90946C34.7666 6.01977 31.498 7.63469 32.7788 10.7545C34.3494 14.5748 35.323 18.8002 32.8136 23.1992C33.3004 19.2053 29.5334 16.2128 27.563 14.9394C25.8997 15.9581 23.5004 16.5254 21.5068 15.935L21.6575 28.5359C28.0266 27.0599 32.4833 31.0307 32.4833 31.0307C38.7422 24.7505 38.4003 13.8339 36.5748 9.90946Z" fill="#DE4913"/>
<path d="M16.2269 33.4558L15.9082 33.2533C10.1997 29.653 5.42434 29.653 0.892365 33.2533L0.121582 32.2866C4.9723 28.4375 10.2519 28.3448 16.2501 32.0146C22.6655 28.3622 27.4062 28.3159 32.0598 31.8409L31.3122 32.8249C27.041 29.5893 22.6308 29.7224 16.5514 33.2648L16.2269 33.4558Z" fill="#DE4913"/>
<path d="M50.1879 25.5897C50.1879 27.4072 51.2427 27.7488 52.425 27.7488C52.6857 27.7488 52.6857 28.1424 52.425 28.1424C51.1326 28.1424 49.7881 27.8819 48.1827 27.8819C46.5485 27.8819 45.2561 28.1424 43.9695 28.1424C43.7087 28.1424 43.7087 27.7488 43.9695 27.7488C45.1576 27.7488 46.2355 27.4072 46.2355 25.5897V11.7501C46.2355 9.93261 45.1576 9.59111 43.9695 9.59111C43.7087 9.59111 43.7087 9.19751 43.9695 9.19751C45.2619 9.19751 46.5542 9.45798 48.1827 9.45798C49.7881 9.45798 51.1326 9.19751 52.425 9.19751C56.5107 9.19751 59.2229 11.3044 59.2229 14.3259C59.2229 17.7467 55.7979 19.9289 50.6342 19.9289C50.4777 19.9289 50.3444 19.9289 50.1879 19.9289V25.5897ZM50.1879 11.7501V19.5121C53.2421 19.5121 55.2705 17.4573 55.2705 14.3259C55.2705 11.5359 54.1636 9.59111 52.4771 9.59111H52.425C51.2427 9.59111 50.1879 9.93261 50.1879 11.7501Z" fill="#DE4913"/>
<path d="M66.4438 14.4358C69.527 14.4358 72.2913 15.6455 72.2913 21.2254V24.8025C72.2913 26.1164 73.1896 27.222 74.5284 27.222C74.7891 27.222 74.7891 27.5403 74.5284 27.6156C73.5779 27.905 72.3667 28.1423 71.422 28.1423C69.7877 28.1423 68.6577 27.1409 68.3911 25.5607C67.8405 27.0599 66.6525 28.1423 64.3575 28.1423C61.5641 28.1423 59.8545 26.539 59.8545 24.4031C59.8545 20.6639 65.2036 19.4831 68.2578 18.1403C68.0202 16.2707 67.3595 14.9567 65.4934 14.9567C62.9898 14.9567 61.5409 16.8495 61.199 20.2182C61.17 20.3224 61.0947 20.4034 60.9904 20.4034C60.8571 20.4034 60.7818 20.3224 60.8049 20.2182L61.228 15.6108C61.257 15.2172 61.5467 14.9278 61.964 14.8988C63.6794 14.8294 65.1804 14.4358 66.4438 14.4358ZM68.2867 18.4355C65.3891 20.0156 63.8069 20.4324 63.8069 23.5117C63.8069 25.7749 64.6473 27.2509 65.9164 27.2509C67.3363 27.2509 68.3157 25.3813 68.3389 22.5914C68.3447 21.1212 68.3969 19.6741 68.2867 18.4355Z" fill="#DE4913"/>
<path d="M81.935 27.0138C78.6432 27.0138 75.4557 28.0151 75.4557 29.0917C75.4557 29.4506 76.4178 29.8095 77.2465 29.931C80.4513 30.423 82.0219 27.5694 85.957 27.4421C86.6176 27.4189 87.4695 27.471 88.333 27.9283C88.6634 28.1019 89.7123 28.6576 90.1586 29.9079C90.6106 31.1755 90.1644 32.4026 89.6602 33.0972C89.4226 33.4213 88.9821 34.0291 88.3852 34.0001C88.0259 33.9828 87.6376 33.7397 87.4521 33.3924C86.919 32.4026 88.3968 31.3028 88.0665 30.1047C87.8462 29.3059 86.8842 28.7213 86.1134 28.5708C82.9839 27.9688 80.1674 33.9944 76.7249 33.8786C76.4583 33.867 75.6876 33.8439 75.0501 33.3113C74.4763 32.8309 74.146 32.0842 74.146 31.1697C74.146 28.8023 76.412 27.118 79.9703 26.6954C77.4957 25.9082 75.7281 23.645 75.7281 20.722C75.7281 17.0638 78.4693 14.4302 81.9697 14.4302C84.0792 14.4302 86.183 14.4302 88.2925 14.4302C88.4779 14.4302 88.6112 14.5633 88.6634 14.8238L88.9242 17.7989C88.9532 17.9841 88.7909 18.0883 88.6634 18.0883C88.5359 18.0883 88.4258 18.0073 88.4026 17.851C88.1128 16.2187 87.0059 15.1942 84.369 14.8759C86.635 15.773 88.1882 17.9552 88.1882 20.7162C88.1824 24.357 85.4412 27.0138 81.935 27.0138ZM83.6214 26.487C85.5455 25.9603 85.5976 23.0662 84.6993 19.9058C83.8011 16.7455 82.2247 14.3549 80.3528 14.8817C78.4288 15.4315 78.2723 18.3025 79.1648 21.4629C80.0689 24.6464 81.7031 27.0138 83.6214 26.487Z" fill="#DE4913"/>
<path d="M93.3984 20.1199C93.7403 23.3034 95.7455 25.9602 98.7707 25.9602C99.9587 25.9602 101.326 25.4103 102.091 24.8026C102.196 24.7215 102.3 24.7215 102.381 24.8315C102.462 24.9125 102.462 25.0399 102.381 25.1209C100.828 27.0137 99.0373 28.1482 96.667 28.1482C93.2709 28.1482 90.3442 25.3872 90.3442 21.046C90.3442 17.1505 93.0565 14.4417 96.5858 14.4417C99.6922 14.4417 102.173 16.7338 102.358 19.7321C102.387 19.9694 102.225 20.1025 101.987 20.1025L93.3984 20.1199ZM99.1706 19.7263C99.0894 16.7512 98.0115 14.8063 96.2961 14.8063C94.7951 14.8063 93.3984 16.3055 93.3462 19.0143C93.3462 19.2517 93.3462 19.489 93.3752 19.7263H99.1706Z" fill="#DE4913"/>
<path d="M112.105 9.70108C109.26 9.70108 107.336 11.8832 107.284 15.1767C107.179 21.3065 110.39 25.1498 114.818 25.1498C116.69 25.1498 118.585 24.6 119.663 23.7549C119.923 23.5465 120.213 23.9633 120.005 24.2006C118.08 26.568 115.316 28.1481 112.998 28.1481C107.678 28.1481 103.749 24.3569 103.749 18.3834C103.749 13.0409 106.884 9.19751 111.862 9.19751C115.078 9.19751 116.921 10.5635 117.947 10.5635C118.37 10.5635 118.683 10.3262 118.869 9.6432C118.898 9.53901 119.002 9.45798 119.129 9.45798C119.234 9.45798 119.315 9.53901 119.315 9.6432V17.5383C119.315 17.6425 119.234 17.7236 119.106 17.7236C119.002 17.7236 118.921 17.6425 118.921 17.5383C118.851 13.1451 115.739 9.70108 112.105 9.70108Z" fill="#DE4913"/>
<path d="M128.443 14.4358C131.526 14.4358 134.29 15.6455 134.29 21.2254V24.8025C134.29 26.1164 135.189 27.222 136.527 27.222C136.788 27.222 136.788 27.5403 136.527 27.6156C135.577 27.905 134.366 28.1423 133.421 28.1423C131.787 28.1423 130.657 27.1409 130.39 25.5607C129.84 27.0599 128.651 28.1423 126.357 28.1423C123.563 28.1423 121.854 26.539 121.854 24.4031C121.854 20.6639 127.203 19.4831 130.257 18.1403C130.019 16.2707 129.359 14.9567 127.492 14.9567C124.989 14.9567 123.54 16.8495 123.198 20.2182C123.169 20.3224 123.094 20.4034 122.989 20.4034C122.856 20.4034 122.781 20.3224 122.804 20.2182L123.227 15.6108C123.256 15.2172 123.546 14.9278 123.963 14.8988C125.673 14.8294 127.174 14.4358 128.443 14.4358ZM130.286 18.4355C127.388 20.0156 125.806 20.4324 125.806 23.5117C125.806 25.7749 126.646 27.2509 127.915 27.2509C129.335 27.2509 130.315 25.3813 130.338 22.5914C130.338 21.1212 130.39 19.6741 130.286 18.4355Z" fill="#DE4913"/>
<path d="M138.614 15.1188H136.875C136.771 15.1188 136.689 15.0377 136.689 14.9104C136.689 14.8062 136.771 14.7252 136.875 14.7252C139.981 14.7252 142.015 13.3302 142.143 11.2233C142.143 11.1191 142.224 11.0381 142.352 11.0381C142.456 11.0381 142.537 11.1191 142.537 11.2233C142.537 12.8556 142.537 12.433 142.537 14.7252H144.067C144.171 14.7252 144.252 14.8062 144.252 14.9104C144.252 15.0435 144.171 15.1188 144.067 15.1188H142.566V24.4841C142.566 27.1699 143.621 27.7487 144.803 27.7487C145.064 27.7487 145.064 28.1423 144.803 28.1423C144.038 28.1423 143.644 28.0381 142.062 27.957C139.981 27.8529 138.608 26.429 138.608 24.432V15.1188H138.614Z" fill="#DE4913"/>
</g>
<defs>
<clipPath id="clip0_427_114">
<rect width="145" height="34" fill="white"/>
</clipPath>
</defs>
</svg>
