<svg width="64" height="64" viewBox="0 0 64 64" fill="none" xmlns="http://www.w3.org/2000/svg">
<g clip-path="url(#clip0_222_133)" filter="url(#filter0_i_222_133)">
<path d="M64 10C64 12.25 62.2125 14.325 59.2 16C55.5625 18.0125 50.1375 19.4375 43.9125 19.8625C43.45 19.6375 42.9875 19.425 42.5 19.2375C37.575 17.175 31.025 16 24 16C22.9625 16 21.95 16.025 20.9375 16.075L20.8 16C17.7875 14.325 16 12.25 16 10C16 4.475 26.75 0 40 0C53.25 0 64 4.475 64 10ZM20.0875 20.1375C21.3625 20.05 22.675 20 24 20C31.775 20 38.675 21.5375 43.0625 23.925C46.1625 25.6125 48 27.7125 48 30C48 30.5 47.9125 30.9875 47.7375 31.4625C47.1625 33.1125 45.6125 34.625 43.3625 35.9C43.35 35.9125 43.325 35.9125 43.3125 35.925C43.275 35.95 43.2375 35.9625 43.2 35.9875C38.825 38.4125 31.85 39.9875 24 39.9875C16.55 39.9875 9.8875 38.575 5.475 36.35C5.2375 36.2375 5.0125 36.1125 4.7875 35.9875C1.7875 34.325 0 32.25 0 30C0 25.65 6.675 21.9375 16 20.575C17.3125 20.3875 18.675 20.2375 20.0875 20.1375ZM52 30C52 27.2625 50.675 25.0125 48.9875 23.325C52.525 22.775 55.7625 21.9 58.5125 20.7625C60.55 19.9125 62.45 18.8625 64 17.575V22C64 24.4125 61.9375 26.6375 58.525 28.3625C56.7 29.2875 54.475 30.075 51.975 30.675C51.9875 30.45 52 30.2375 52 30.0125V30ZM48 42C48 44.25 46.2125 46.325 43.2 48C42.975 48.125 42.75 48.2375 42.5125 48.3625C38.1125 50.5875 31.45 52 24 52C16.15 52 9.175 50.425 4.8 48C1.7875 46.325 0 44.25 0 42V37.575C1.5625 38.8625 3.45 39.9125 5.4875 40.7625C10.425 42.825 16.975 44 24 44C31.025 44 37.575 42.825 42.5125 40.7625C43.4875 40.3625 44.425 39.9 45.3125 39.4C46.075 38.975 46.7875 38.5 47.4625 38C47.65 37.8625 47.825 37.7125 48 37.575V38V38.7125V42ZM52 42V38V34.7625C54.375 34.2375 56.5625 33.575 58.5125 32.7625C60.55 31.9125 62.45 30.8625 64 29.575V34C64 35.3125 63.375 36.625 62.1375 37.8625C60.1 39.9 56.5125 41.575 51.975 42.6625C51.9875 42.45 52 42.225 52 42ZM24 56C31.025 56 37.575 54.825 42.5125 52.7625C44.55 51.9125 46.45 50.8625 48 49.575V54C48 59.525 37.25 64 24 64C10.75 64 0 59.525 0 54V49.575C1.5625 50.8625 3.45 51.9125 5.4875 52.7625C10.425 54.825 16.975 56 24 56Z" fill="white"/>
</g>
<defs>
<filter id="filter0_i_222_133" x="0" y="0" width="64" height="68" filterUnits="userSpaceOnUse" color-interpolation-filters="sRGB">
<feFlood flood-opacity="0" result="BackgroundImageFix"/>
<feBlend mode="normal" in="SourceGraphic" in2="BackgroundImageFix" result="shape"/>
<feColorMatrix in="SourceAlpha" type="matrix" values="0 0 0 0 0 0 0 0 0 0 0 0 0 0 0 0 0 0 127 0" result="hardAlpha"/>
<feOffset dy="4"/>
<feGaussianBlur stdDeviation="2"/>
<feComposite in2="hardAlpha" operator="arithmetic" k2="-1" k3="1"/>
<feColorMatrix type="matrix" values="0 0 0 0 0 0 0 0 0 0 0 0 0 0 0 0 0 0 0.25 0"/>
<feBlend mode="normal" in2="shape" result="effect1_innerShadow_222_133"/>
</filter>
<clipPath id="clip0_222_133">
<rect width="64" height="64" fill="white"/>
</clipPath>
</defs>
</svg>
