<svg width="77" height="77" viewBox="0 0 77 77" fill="none" xmlns="http://www.w3.org/2000/svg">
<g id="package_2_FILL0_wght400_GRAD0_opsz24 1">
<path id="Vector" d="M35.2917 62.3218V40.3447L16.0417 29.1958V51.1729L35.2917 62.3218ZM41.7083 62.3218L60.9583 51.1729V29.1958L41.7083 40.3447V62.3218ZM35.2917 69.701L12.8333 56.7875C11.8174 56.1993 11.0286 55.4239 10.4672 54.4614C9.90573 53.4989 9.625 52.4295 9.625 51.2531V25.7468C9.625 24.5704 9.90573 23.501 10.4672 22.5385C11.0286 21.576 11.8174 20.8007 12.8333 20.2125L35.2917 7.29892C36.3076 6.71072 37.3771 6.41663 38.5 6.41663C39.6229 6.41663 40.6924 6.71072 41.7083 7.29892L64.1667 20.2125C65.1826 20.8007 65.9714 21.576 66.5328 22.5385C67.0943 23.501 67.375 24.5704 67.375 25.7468V51.2531C67.375 52.4295 67.0943 53.4989 66.5328 54.4614C65.9714 55.4239 65.1826 56.1993 64.1667 56.7875L41.7083 69.701C40.6924 70.2892 39.6229 70.5833 38.5 70.5833C37.3771 70.5833 36.3076 70.2892 35.2917 69.701ZM51.3333 27.351L57.5094 23.8218L38.5 12.8333L32.2437 16.4427L51.3333 27.351ZM38.5 34.8104L44.7562 31.201L25.7469 20.2125L19.4906 23.8218L38.5 34.8104Z" fill="#EF8227"/>
</g>
</svg>
