<?xml version="1.0" encoding="UTF-8"?>
<svg id="Capa_1" data-name="Capa 1" xmlns="http://www.w3.org/2000/svg" viewBox="0 0 381.95 339.14">
  <defs>
    <style>
      .cls-1 {
        fill: #fff;
        stroke-width: 0px;
      }
    </style>
  </defs>
  <g>
    <path class="cls-1" d="m0,101.29v213.3s68.95-61.49,158.12-4.2l-1.33-228.72C133.41,63.87,60.63,19.53,0,101.29Z"/>
    <path class="cls-1" d="m206.78,292.83l-1.81-151.06,9.33,4.95c16.96,9,43.41,2.75,52.32-2.74,8.9-5.48,13.63-12.98,13.63-12.98l-8.19-11.94s33.26-41.38-9.86-81.38L273.51.2s-29.66-4.75-55.11,32.4c-29.84,11.61-43.17,27.3-49.14,39.01l1.39,238.83c12.48-8.03,24.57-13.74,36.13-17.6Z"/>
    <path class="cls-1" d="m370.22,100.46c-18.33-39.44-51.38-23.05-38.42,8.56,15.87,38.7,25.76,81.55.37,126.14,4.96-40.48-33.22-70.8-53.13-83.7-16.81,10.3-41.1,16.06-61.31,10.1l1.53,127.74c64.45-14.95,109.58,25.29,109.58,25.29,63.34-63.7,59.87-174.36,41.38-214.13Z"/>
  </g>
  <path class="cls-1" d="m164.29,339.14l-3.22-2.03c-57.81-36.5-106.12-36.51-152.03-.02l-7.8-9.81c49.1-39.02,102.54-39.94,163.29-2.77,64.93-37.03,112.95-37.49,160.04-1.74l-7.58,9.98c-43.21-32.8-87.9-31.46-149.43,4.48l-3.28,1.92Z"/>
</svg>