<svg width="59" height="53" viewBox="0 0 59 53" fill="none" xmlns="http://www.w3.org/2000/svg">
<g id="Group">
<g id="Group_2">
<path id="Vector" d="M0 15.647V48.5922C0 48.5922 10.6494 39.0933 24.4257 47.9432L24.2192 12.6145C20.6084 9.86509 9.36318 3.01528 0 15.647Z" fill="#DE4913"/>
<path id="Vector_2" d="M31.9422 45.2296L31.6649 21.8954L33.1045 22.6623C35.7241 24.0547 39.8127 23.0871 41.1874 22.2376C42.5621 21.388 43.2937 20.2316 43.2937 20.2316L42.0311 18.3849C42.0311 18.3849 47.1699 11.9953 40.5089 5.81806L42.2494 0.030231C42.2494 0.030231 37.671 -0.70136 33.7358 5.03337C29.1279 6.82695 27.0689 9.25182 26.1426 11.0572L26.355 47.9494C28.2843 46.7104 30.1486 45.8255 31.9363 45.2296H31.9422Z" fill="#DE4913"/>
<path id="Vector_3" d="M57.1873 15.5177C54.3553 9.42308 49.2519 11.9541 51.2519 16.8393C53.7063 22.8159 55.2285 29.4356 51.3109 36.3208C52.0779 30.0669 46.178 25.3824 43.1041 23.3941C40.5082 24.9871 36.7558 25.8721 33.6348 24.9576L33.8708 44.6869C43.8239 42.3801 50.7976 48.5927 50.7976 48.5927C60.5797 38.7516 60.0428 21.6595 57.1873 15.5177Z" fill="#DE4913"/>
</g>
<path id="Vector_4" d="M25.3811 52.3866L24.8855 52.0739C15.953 46.4336 8.49549 46.4336 1.40378 52.0739L0.200195 50.5576C7.7816 44.5338 16.0356 44.3863 25.4224 50.1328C35.4523 44.4158 42.8685 44.3391 50.1431 49.8614L48.9749 51.4013C42.3021 46.3333 35.3992 46.5398 25.8944 52.0916L25.387 52.3866H25.3811Z" fill="#DE4913"/>
</g>
</svg>
