<?xml version="1.0" encoding="UTF-8"?>
<svg id="Capa_1" data-name="Capa 1" xmlns="http://www.w3.org/2000/svg" viewBox="0 0 64.1 56.91">
  <defs>
    <style>
      .cls-1 {
        fill: #de4913;
        stroke-width: 0px;
      }
    </style>
  </defs>
  <g>
    <path class="cls-1" d="m0,17v35.8s11.57-10.32,26.53-.71l-.22-38.38c-3.92-2.99-16.14-10.43-26.31,3.29Z"/>
    <path class="cls-1" d="m34.7,49.14l-.3-25.35,1.57.83c2.85,1.51,7.29.46,8.78-.46s2.29-2.18,2.29-2.18l-1.37-2s5.58-6.94-1.65-13.66L45.9.03s-4.98-.8-9.25,5.44c-5.01,1.95-7.25,4.58-8.25,6.55l.23,40.08c2.09-1.35,4.12-2.31,6.06-2.95Z"/>
    <path class="cls-1" d="m62.13,16.86c-3.08-6.62-8.62-3.87-6.45,1.44,2.66,6.5,4.32,13.68.06,21.17.83-6.79-5.57-11.88-8.92-14.05-2.82,1.73-6.9,2.69-10.29,1.7l.26,21.44c10.82-2.51,18.39,4.24,18.39,4.24,10.63-10.69,10.05-29.26,6.94-35.93Z"/>
  </g>
  <path class="cls-1" d="m27.57,56.91l-.54-.34c-9.7-6.12-17.81-6.13-25.51,0l-1.31-1.65c8.24-6.55,17.21-6.7,27.4-.46,10.9-6.21,18.95-6.29,26.86-.29l-1.27,1.67c-7.25-5.5-14.75-5.28-25.08.75l-.55.32Z"/>
</svg>