<svg width="77" height="77" viewBox="0 0 77 77" fill="none" xmlns="http://www.w3.org/2000/svg">
<g id="partner_exchange_FILL0_wght400_GRAD0_opsz24 1">
<path id="Vector" d="M36.2538 26.6291L29.5163 19.8916C28.8747 19.25 28.5538 18.5013 28.5538 17.6458C28.5538 16.7902 28.8747 16.0416 29.5163 15.4L36.2538 8.66245C36.8955 8.02078 37.6441 7.69995 38.4997 7.69995C39.3552 7.69995 40.1038 8.02078 40.7455 8.66245L47.483 15.4C48.1247 16.0416 48.4455 16.7902 48.4455 17.6458C48.4455 18.5013 48.1247 19.25 47.483 19.8916L40.7455 26.6291C40.1038 27.2708 39.3552 27.5916 38.4997 27.5916C37.6441 27.5916 36.8955 27.2708 36.2538 26.6291ZM6.41634 64.1666C5.50731 64.1666 4.74533 63.8591 4.1304 63.2442C3.51547 62.6293 3.20801 61.8673 3.20801 60.9583V51.3333C3.20801 49.5152 3.83631 47.9913 5.0929 46.7614C6.3495 45.5315 7.86009 44.9166 9.62467 44.9166H20.132C21.2014 44.9166 22.2174 45.184 23.1799 45.7187C24.1424 46.2534 24.9177 46.9753 25.5059 47.8843C27.0566 49.9697 28.9683 51.6006 31.2408 52.777C33.5134 53.9534 35.933 54.5416 38.4997 54.5416C41.1198 54.5416 43.5662 53.9534 45.8387 52.777C48.1113 51.6006 49.9962 49.9697 51.4934 47.8843C52.1886 46.9753 53.004 46.2534 53.9398 45.7187C54.8755 45.184 55.8514 44.9166 56.8674 44.9166H67.3747C69.1927 44.9166 70.7167 45.5315 71.9466 46.7614C73.1764 47.9913 73.7913 49.5152 73.7913 51.3333V60.9583C73.7913 61.8673 73.4839 62.6293 72.8689 63.2442C72.254 63.8591 71.492 64.1666 70.583 64.1666H54.5413C53.6323 64.1666 52.8703 63.8591 52.2554 63.2442C51.6405 62.6293 51.333 61.8673 51.333 60.9583V56.8677C49.4615 58.2045 47.4429 59.2204 45.2773 59.9156C43.1117 60.6107 40.8525 60.9583 38.4997 60.9583C36.2004 60.9583 33.9545 60.5973 31.7622 59.8755C29.5698 59.1536 27.5379 58.1243 25.6663 56.7874V60.9583C25.6663 61.8673 25.3589 62.6293 24.7439 63.2442C24.129 63.8591 23.367 64.1666 22.458 64.1666H6.41634ZM12.833 41.7083C10.1594 41.7083 7.88683 40.7725 6.0153 38.901C4.14377 37.0295 3.20801 34.7569 3.20801 32.0833C3.20801 29.3562 4.14377 27.0703 6.0153 25.2255C7.88683 23.3807 10.1594 22.4583 12.833 22.4583C15.5601 22.4583 17.846 23.3807 19.6908 25.2255C21.5356 27.0703 22.458 29.3562 22.458 32.0833C22.458 34.7569 21.5356 37.0295 19.6908 38.901C17.846 40.7725 15.5601 41.7083 12.833 41.7083ZM64.1663 41.7083C61.4927 41.7083 59.2202 40.7725 57.3486 38.901C55.4771 37.0295 54.5413 34.7569 54.5413 32.0833C54.5413 29.3562 55.4771 27.0703 57.3486 25.2255C59.2202 23.3807 61.4927 22.4583 64.1663 22.4583C66.8934 22.4583 69.1794 23.3807 71.0242 25.2255C72.8689 27.0703 73.7913 29.3562 73.7913 32.0833C73.7913 34.7569 72.8689 37.0295 71.0242 38.901C69.1794 40.7725 66.8934 41.7083 64.1663 41.7083Z" fill="#FFC33B"/>
</g>
</svg>
