<svg width="77" height="77" viewBox="0 0 77 77" fill="none" xmlns="http://www.w3.org/2000/svg">
<g id="print_FILL0_wght400_GRAD0_opsz24 1">
<path id="Vector" d="M25.667 67.375C23.9024 67.375 22.3918 66.7467 21.1352 65.4901C19.8786 64.2335 19.2503 62.7229 19.2503 60.9583V54.5417H12.8337C11.0691 54.5417 9.55849 53.9134 8.30189 52.6568C7.04529 51.4002 6.41699 49.8896 6.41699 48.125V35.2917C6.41699 32.5646 7.35276 30.2786 9.22428 28.4339C11.0958 26.5891 13.3684 25.6667 16.042 25.6667H60.9587C63.6857 25.6667 65.9717 26.5891 67.8165 28.4339C69.6613 30.2786 70.5837 32.5646 70.5837 35.2917V48.125C70.5837 49.8896 69.9554 51.4002 68.6988 52.6568C67.4422 53.9134 65.9316 54.5417 64.167 54.5417H57.7503V60.9583C57.7503 62.7229 57.122 64.2335 55.8654 65.4901C54.6088 66.7467 53.0982 67.375 51.3337 67.375H25.667ZM12.8337 48.125H19.2503C19.2503 46.3604 19.8786 44.8498 21.1352 43.5932C22.3918 42.3366 23.9024 41.7083 25.667 41.7083H51.3337C53.0982 41.7083 54.6088 42.3366 55.8654 43.5932C57.122 44.8498 57.7503 46.3604 57.7503 48.125H64.167V35.2917C64.167 34.3826 63.8595 33.6207 63.2446 33.0057C62.6297 32.3908 61.8677 32.0833 60.9587 32.0833H16.042C15.133 32.0833 14.371 32.3908 13.7561 33.0057C13.1411 33.6207 12.8337 34.3826 12.8337 35.2917V48.125ZM51.3337 25.6667V16.0417H25.667V25.6667H19.2503V16.0417C19.2503 14.2771 19.8786 12.7665 21.1352 11.5099C22.3918 10.2533 23.9024 9.625 25.667 9.625H51.3337C53.0982 9.625 54.6088 10.2533 55.8654 11.5099C57.122 12.7665 57.7503 14.2771 57.7503 16.0417V25.6667H51.3337ZM57.7503 40.1042C58.6594 40.1042 59.4213 39.7967 60.0363 39.1818C60.6512 38.5668 60.9587 37.8049 60.9587 36.8958C60.9587 35.9868 60.6512 35.2248 60.0363 34.6099C59.4213 33.995 58.6594 33.6875 57.7503 33.6875C56.8413 33.6875 56.0793 33.995 55.4644 34.6099C54.8495 35.2248 54.542 35.9868 54.542 36.8958C54.542 37.8049 54.8495 38.5668 55.4644 39.1818C56.0793 39.7967 56.8413 40.1042 57.7503 40.1042ZM51.3337 60.9583V48.125H25.667V60.9583H51.3337Z" fill="#F9A253"/>
</g>
</svg>
