<svg width="79" height="79" viewBox="0 0 79 79" fill="none" xmlns="http://www.w3.org/2000/svg">
<g id="share_location_FILL0_wght400_GRAD0_opsz24 1">
<path id="Vector" d="M46.659 71.676C45.6715 71.8955 44.8074 71.6898 44.0668 71.0589C43.3262 70.428 42.9559 69.5639 42.9559 68.4667C42.9559 67.6986 43.2164 66.9991 43.7376 66.3682C44.2588 65.7373 44.9034 65.3122 45.6715 65.0927C47.043 64.7635 48.3734 64.3384 49.6626 63.8172C50.9519 63.296 52.2 62.6514 53.4069 61.8833C54.1201 61.4445 54.9019 61.2662 55.7522 61.3484C56.6026 61.4307 57.302 61.7462 57.8507 62.2948C58.6187 63.0629 58.9616 63.9406 58.8793 64.9281C58.797 65.9156 58.317 66.6837 57.4392 67.2323C55.7385 68.3295 53.9967 69.2347 52.2137 69.9479C50.4307 70.6611 48.5791 71.2372 46.659 71.676ZM62.5413 57.6042C61.9927 57.0556 61.6772 56.3698 61.5949 55.5469C61.5126 54.724 61.6909 53.9833 62.1298 53.325C62.843 52.1181 63.4739 50.8837 64.0225 49.6219C64.5711 48.3601 65.01 47.016 65.3392 45.5896C65.5586 44.8215 65.9975 44.1632 66.6559 43.6146C67.3142 43.066 68.0274 42.7917 68.7954 42.7917C69.8927 42.7917 70.7567 43.1757 71.3876 43.9438C72.0185 44.7118 72.1968 45.5896 71.9225 46.5771C71.4836 48.5521 70.8939 50.4311 70.1533 52.2141C69.4126 53.9971 68.4937 55.684 67.3965 57.275C66.8479 58.0979 66.0935 58.5505 65.1335 58.6328C64.1734 58.7151 63.3093 58.3722 62.5413 57.6042ZM68.7132 36.2083C67.9451 36.2083 67.2456 35.934 66.6147 35.3854C65.9838 34.8368 65.5586 34.1785 65.3392 33.4104C65.01 31.984 64.5711 30.6262 64.0225 29.337C63.4739 28.0477 62.843 26.8271 62.1298 25.675C61.6909 25.0167 61.5126 24.276 61.5949 23.4531C61.6772 22.6302 61.9927 21.9444 62.5413 21.3958C63.3093 20.6278 64.1734 20.2712 65.1335 20.326C66.0935 20.3809 66.8479 20.8198 67.3965 21.6427C68.4937 23.2337 69.4263 24.9481 70.1944 26.7859C70.9625 28.6238 71.5659 30.5028 72.0048 32.4229C72.2243 33.4104 72.0048 34.2882 71.3465 35.0563C70.6882 35.8243 69.8104 36.2083 68.7132 36.2083ZM32.7517 71.5938C25.2357 69.8382 19.0501 65.9979 14.1949 60.0729C9.33971 54.1479 6.91211 47.2903 6.91211 39.5C6.91211 31.6549 9.326 24.7424 14.1538 18.7625C18.9816 12.7826 25.1534 8.96979 32.6694 7.32396C33.6569 7.10452 34.521 7.31024 35.2616 7.94115C36.0022 8.57205 36.3725 9.40868 36.3725 10.451C36.3725 11.2191 36.1119 11.9186 35.5908 12.5495C35.0696 13.1804 34.425 13.6056 33.6569 13.825C27.7868 15.2514 22.959 18.351 19.1736 23.124C15.3882 27.8969 13.4954 33.3556 13.4954 39.5C13.4954 45.6444 15.3882 51.062 19.1736 55.7526C22.959 60.4432 27.7868 63.5566 33.6569 65.0927C34.425 65.3122 35.0696 65.751 35.5908 66.4094C36.1119 67.0677 36.3725 67.7809 36.3725 68.549C36.3725 69.5913 36.0159 70.4142 35.3027 71.0177C34.5895 71.6212 33.7392 71.8132 32.7517 71.5938ZM53.6538 17.199C52.392 16.4309 51.1027 15.7589 49.7861 15.1828C48.4694 14.6068 47.1253 14.1542 45.7538 13.825C44.9857 13.6056 44.3274 13.1804 43.7788 12.5495C43.2302 11.9186 42.9559 11.2191 42.9559 10.451C42.9559 9.40868 43.3262 8.57205 44.0668 7.94115C44.8074 7.31024 45.6715 7.10452 46.659 7.32396C48.5791 7.76285 50.4444 8.33889 52.2548 9.05209C54.0652 9.76528 55.8208 10.6705 57.5215 11.7677C58.3993 12.3163 58.8793 13.0844 58.9616 14.0719C59.0439 15.0594 58.701 15.9372 57.9329 16.7052C57.3843 17.2538 56.7123 17.583 55.9168 17.6927C55.1213 17.8024 54.367 17.6378 53.6538 17.199ZM39.7465 54.8063C39.3076 54.8063 38.8824 54.7377 38.471 54.6005C38.0595 54.4634 37.7166 54.2576 37.4423 53.9833C33.8215 50.6368 31.1059 47.5097 29.2954 44.6021C27.485 41.6944 26.5798 39.0063 26.5798 36.5375C26.5798 32.6972 27.8279 29.4879 30.3241 26.9094C32.8203 24.3309 35.9611 23.0417 39.7465 23.0417C43.5319 23.0417 46.6727 24.3309 49.1689 26.9094C51.6651 29.4879 52.9132 32.6972 52.9132 36.5375C52.9132 39.0063 52.0079 41.6944 50.1975 44.6021C48.3871 47.5097 45.6715 50.6368 42.0507 53.9833C41.7763 54.2576 41.4335 54.4634 41.022 54.6005C40.6105 54.7377 40.1854 54.8063 39.7465 54.8063ZM39.7465 39.5C40.734 39.5 41.5706 39.1571 42.2564 38.4714C42.9421 37.7856 43.285 36.949 43.285 35.9615C43.285 34.974 42.9421 34.1373 42.2564 33.4516C41.5706 32.7658 40.734 32.4229 39.7465 32.4229C38.759 32.4229 37.9224 32.7658 37.2366 33.4516C36.5508 34.1373 36.2079 34.974 36.2079 35.9615C36.2079 36.949 36.5508 37.7856 37.2366 38.4714C37.9224 39.1571 38.759 39.5 39.7465 39.5Z" fill="#D94714"/>
</g>
</svg>
