<svg width="69" height="55" viewBox="0 0 69 55" fill="none" xmlns="http://www.w3.org/2000/svg">
<g clip-path="url(#clip0_222_137)" filter="url(#filter0_i_222_137)">
<path d="M24.6784 2.64268C23.8482 0.644634 21.6596 -0.418843 19.5681 0.150493L10.0806 2.72862C8.20465 3.24424 6.90012 4.94151 6.90012 6.8751C6.90012 18.4122 10.9754 29.004 17.7676 37.2862L0.991993 50.3917C-0.129257 51.2726 -0.334101 52.8946 0.549961 54.0118C1.43402 55.129 3.06199 55.3331 4.18324 54.4523L68.0082 4.6085C69.1295 3.72764 69.3343 2.10557 68.4503 0.988384C67.5662 -0.128803 65.9382 -0.332905 64.817 0.547954L27.2767 29.8634C25.3576 27.5538 23.7296 25.0079 22.4251 22.2687L27.7403 17.9396C29.2173 16.7364 29.724 14.7169 28.9909 12.9659L24.6784 2.65342V2.64268ZM35.1146 36.9103L25.2714 44.6446C33.4975 51.1329 43.8906 55.0001 55.2001 55.0001C57.1407 55.0001 58.8442 53.7003 59.3617 51.8312L61.9492 42.378C62.5206 40.2941 61.4532 38.1134 59.4479 37.2862L49.0979 32.9894C47.3406 32.2589 45.3029 32.7638 44.1062 34.2355L39.7506 39.5314C38.1334 38.7687 36.5917 37.8985 35.1146 36.921V36.9103Z" fill="white"/>
</g>
<defs>
<filter id="filter0_i_222_137" x="0" y="0" width="69" height="59" filterUnits="userSpaceOnUse" color-interpolation-filters="sRGB">
<feFlood flood-opacity="0" result="BackgroundImageFix"/>
<feBlend mode="normal" in="SourceGraphic" in2="BackgroundImageFix" result="shape"/>
<feColorMatrix in="SourceAlpha" type="matrix" values="0 0 0 0 0 0 0 0 0 0 0 0 0 0 0 0 0 0 127 0" result="hardAlpha"/>
<feOffset dy="4"/>
<feGaussianBlur stdDeviation="2"/>
<feComposite in2="hardAlpha" operator="arithmetic" k2="-1" k3="1"/>
<feColorMatrix type="matrix" values="0 0 0 0 0 0 0 0 0 0 0 0 0 0 0 0 0 0 0.25 0"/>
<feBlend mode="normal" in2="shape" result="effect1_innerShadow_222_137"/>
</filter>
<clipPath id="clip0_222_137">
<rect width="69" height="55" fill="white"/>
</clipPath>
</defs>
</svg>
